<svg height="310" viewBox="0 0 838 310" width="838" xmlns="http://www.w3.org/2000/svg" xmlns:xlink="http://www.w3.org/1999/xlink"><clipPath id="a"><path d="m0 0h838v310h-838z"/></clipPath><g clip-path="url(#a)"><path d="m0 0h838v310h-838z" fill="none"/><g fill="#fff"><path d="m189.68 39.06-10.72-10.72c-2.96-3.12-8.16-3.12-11.28 0l-71.68 71.68 22 22 71.68-71.68c3.12-3.12 3.12-8.32 0-11.28zm-109.68 74.96c-13.255 0-24 10.745-24 24 0 10.48-9.28 16-16 16 7.36 9.76 20 16 32 16 17.673 0 32-14.327 32-32 0-13.255-10.745-24-24-24z"/><path d="m254.74 100.4q0-1.12.64-1.76.64-.64 1.76-.64h25.28q1.12 0 1.76.64.64.64.64 1.76v107.2q0 1.12-.64 1.76-.64.64-1.76.64h-24.16q-1.92 0-2.88-1.6l-32.64-54.4q-.32-.48-.64-.4-.32.08-.32.72l.32 53.28q0 1.12-.64 1.76-.64.64-1.76.64h-25.28q-1.12 0-1.76-.64-.64-.64-.64-1.76v-107.2q0-1.12.64-1.76.64-.64 1.76-.64h24.16q1.92 0 2.88 1.6l32.48 54.4q.32.48.64.4.32-.08.32-.72zm121.44 62.08q.48 3.52.48 7.2 0 2.56-.16 4 0 2.24-2.4 2.24h-48q-.64 0-.64.64 0 1.44 1.28 3.36 1.6 2.72 5.68 4.56 4.08 1.84 9.2 1.84 4.32 0 8-1.28 3.68-1.28 6.24-3.68.8-.64 1.6-.64 1.12 0 1.76.96l12.16 15.52q.64.8.64 1.76 0 .96-.8 1.6-5.6 5.44-13.92 8.08-8.32 2.64-17.92 2.64-14.88 0-25.44-6.24-10.56-6.24-15.36-17.76-3.52-8.32-3.52-17.92 0-10.08 2.88-17.92 4.32-12.16 14.24-19.04 9.92-6.88 23.36-6.88 10.24 0 18.96 4.8 8.72 4.8 14.4 13.2 5.68 8.4 7.28 18.96zm-40.8-11.2q-6.56 0-9.12 6.4l-.64 1.76q-.16.48.16.72.32.24.64.24h18.24q.64 0 .64-.64 0-.64-.48-2.08-.8-3.04-3.28-4.72-2.48-1.68-6.16-1.68zm103.68-2.88q0 1.12-.64 1.76-.64.64-1.76.64h-13.28q-.8 0-.8.8v25.12q0 8 5.76 8h5.92q1.12 0 1.76.64.64.64.64 1.76v20.48q0 2.24-2.4 2.56-6.24.48-12 .48-14.56 0-21.44-4.48-6.88-4.48-7.04-16.96v-37.6q0-.8-.8-.8h-8.64q-1.12 0-1.76-.64-.64-.64-.64-1.76v-19.2q0-1.12.64-1.76.64-.64 1.76-.64h8.64q.8 0 .8-.8v-19.2q0-1.12.64-1.76.64-.64 1.76-.64h24q1.12 0 1.76.64.64.64.64 1.76v19.2q0 .8.8.8h13.28q1.12 0 1.76.64.64.64.64 1.76zm51.84 62.88q-13.12 0-23.12-5.12-10-5.12-15.52-14.48-5.52-9.36-5.52-21.68v-32.32q0-12.16 5.52-21.44 5.52-9.28 15.52-14.4 10-5.12 23.12-5.12 13.12 0 23.12 4.8 10 4.8 15.52 13.52 5.52 8.72 5.52 20.24 0 1.44-2.4 1.76l-25.28 1.6h-.48q-1.92 0-1.92-1.76 0-6.56-3.84-10.48-3.84-3.92-10.24-3.92-6.4 0-10.24 3.92-3.84 3.92-3.84 10.48v34.4q0 6.4 3.84 10.32 3.84 3.92 10.24 3.92 6.4 0 10.24-3.92 3.84-3.92 3.84-10.32 0-.96.64-1.44.64-.48 1.76-.32l25.28 1.28q2.4.16 2.4 1.6 0 11.52-5.52 20.32-5.52 8.8-15.52 13.68-10 4.88-23.12 4.88zm89.92-85.76q10.88 0 20 3.68 9.12 3.68 14.4 10.08 5.28 6.4 5.28 13.92v54.4q0 1.12-.64 1.76-.64.64-1.76.64h-25.28q-1.12 0-1.76-.64-.64-.64-.64-1.76v-5.6q0-.64-.24-.72-.24-.08-.56.4-2.72 4.96-7.52 7.28-4.8 2.32-12.64 2.32-13.12 0-20.64-6-7.52-6-7.52-17.52 0-12.16 8.56-18.72 8.56-6.56 24.88-6.56h14.88q.8 0 .8-.8v-2.88q0-3.36-2.48-5.44-2.48-2.08-6.64-2.08-2.88 0-5.12.96-2.24.96-3.2 2.56-.64 1.12-1.2 1.52-.56.4-1.52.24l-25.76-3.2q-2.24-.32-2.24-1.92.64-7.2 5.76-13.12 5.12-5.92 13.68-9.36 8.56-3.44 19.12-3.44zm-2.08 64.96q5.12 0 8.4-2.72 3.28-2.72 3.28-7.36v-2.08q0-.8-.8-.8h-8q-10.08 0-10.08 6.56 0 2.88 1.84 4.64 1.84 1.76 5.36 1.76zm102.24-64.96q8 0 14.4 3.52 6.4 3.52 10.16 10.32 3.76 6.8 3.76 16.08v52.16q0 1.12-.64 1.76-.64.64-1.76.64h-25.28q-1.12 0-1.76-.64-.64-.64-.64-1.76v-45.6q0-4.8-2.48-7.76-2.48-2.96-6.48-2.96-4.16 0-6.64 2.96-2.48 2.96-2.48 7.76v45.6q0 1.12-.64 1.76-.64.64-1.76.64h-25.28q-1.12 0-1.76-.64-.64-.64-.64-1.76v-78.4q0-1.12.64-1.76.64-.64 1.76-.64h25.28q1.12 0 1.76.64.64.64.64 1.76v5.76q0 .64.32.8.32.16.48-.32 6.08-9.92 19.04-9.92zm63.04 84.48q-2.08 0-2.72-1.92l-24.48-78.56q-.16-.32-.16-.96 0-1.76 2.24-1.76h27.52q2.24 0 2.72 2.08l8.48 39.68q.16.64.48.64.32 0 .48-.64l8.48-39.68q.48-2.08 2.72-2.08l27.52.32q1.28 0 1.84.72.56.72.24 2l-24.32 78.24q-.64 1.92-2.72 1.92z" fill-rule="evenodd"/><path d="m104 211.22h8v-16c0-8.831-7.169-16-16-16-8.831 0-16 7.169-16 16v16h8v-16c0-4.415 3.585-8 8-8 4.415 0 8 3.585 8 8z"/><path d="m64 211.22h8v-16c0-8.831-7.169-16-16-16-8.831 0-16 7.169-16 16v16h8v-16c0-4.415 3.585-8 8-8 4.415 0 8 3.585 8 8z"/><path d="m24 211.22h8v-16c0-8.831-7.169-16-16-16-8.831 0-16 7.169-16 16v16h8v-16c0-4.415 3.585-8 8-8 4.415 0 8 3.585 8 8z"/></g></g></svg>